<svg xmlns="http://www.w3.org/2000/svg" width="24" height="24" viewBox="0 0 24 24">
  <path id="ic_call" d="M504.374,239.87l1.079-4.733a1.219,1.219,0,0,0-.14-.984,1.53,1.53,0,0,0-.7-.7l-5.063-2.156a1.622,1.622,0,0,0-.937-.094,1.671,1.671,0,0,0-.8.516l-2.063,2.53a16.741,16.741,0,0,1-7.5-7.5l2.531-2.062a1.623,1.623,0,0,0,.422-1.734l-2.156-5.062a1.8,1.8,0,0,0-.7-.75,1.343,1.343,0,0,0-.984-.094l-4.734,1.079a1.687,1.687,0,0,0-.8.515,1.493,1.493,0,0,0-.328.937A21.455,21.455,0,0,0,502.969,241a1.252,1.252,0,0,0,.844-.328A1.571,1.571,0,0,0,504.374,239.87ZM483,219.578l4.687-1.077,2.156,5.062-3.421,2.764a17.762,17.762,0,0,0,9.75,9.748l2.765-3.42L504,234.809l-1.078,4.686a19.5,19.5,0,0,1-10.032-2.719,19.717,19.717,0,0,1-7.171-7.169A19.489,19.489,0,0,1,483,219.578Z" transform="translate(-481.5 -216.995)" fill="#fff"/>
</svg>
