<svg xmlns="http://www.w3.org/2000/svg" width="28.5" height="28.5" viewBox="0 0 28.5 28.5">
  <path id="ic_call" d="M508.663,244.159l1.281-5.62a1.447,1.447,0,0,0-.167-1.168,1.817,1.817,0,0,0-.835-.835l-6.012-2.56a1.927,1.927,0,0,0-1.113-.111,1.985,1.985,0,0,0-.946.613l-2.45,3a19.88,19.88,0,0,1-8.906-8.9l3.005-2.449a1.927,1.927,0,0,0,.5-2.059l-2.561-6.011a2.136,2.136,0,0,0-.835-.89,1.6,1.6,0,0,0-1.169-.111l-5.622,1.281a2,2,0,0,0-.948.611,1.773,1.773,0,0,0-.389,1.113A25.478,25.478,0,0,0,506.995,245.5a1.486,1.486,0,0,0,1-.389A1.866,1.866,0,0,0,508.663,244.159Zm-25.382-24.1,5.566-1.279,2.561,6.011-4.063,3.282a21.092,21.092,0,0,0,11.578,11.575l3.283-4.062,6.012,2.56-1.28,5.565a23.158,23.158,0,0,1-11.913-3.228,23.414,23.414,0,0,1-8.516-8.514A23.144,23.144,0,0,1,483.281,220.062Z" transform="translate(-481.5 -216.995)" fill="#00a9c7"/>
</svg>
