<svg xmlns="http://www.w3.org/2000/svg" width="24" height="18" viewBox="0 0 24 18">
  <path id="ic_email" d="M503.75,270h-19.5a2.241,2.241,0,0,0-2.25,2.25v13.5a2.241,2.241,0,0,0,2.25,2.25h19.5a2.241,2.241,0,0,0,2.25-2.25v-13.5a2.241,2.241,0,0,0-2.25-2.25Zm-19.5,1.5h19.5a.8.8,0,0,1,.75.75v1.922q-1.64,1.406-7.078,5.718l-.469.376a14.741,14.741,0,0,1-1.453,1.124,2.15,2.15,0,0,1-3,0,11.537,11.537,0,0,1-1.5-1.124l-.422-.376q-5.436-4.313-7.078-5.718V272.25a.7.7,0,0,1,.187-.516A.768.768,0,0,1,484.25,271.5Zm19.5,15h-19.5a.662.662,0,0,1-.75-.75v-9.61q1.64,1.312,6.14,4.922l.469.374a13.53,13.53,0,0,0,1.781,1.36,3.516,3.516,0,0,0,4.219,0,19.532,19.532,0,0,0,1.781-1.36l.469-.374q4.5-3.609,6.14-4.922v9.61a.769.769,0,0,1-.234.563A.7.7,0,0,1,503.75,286.5Z" transform="translate(-482 -270)" fill="#fff"/>
</svg>
