<svg xmlns="http://www.w3.org/2000/svg" width="40" height="40" viewBox="0 0 40 40">
  <g id="ic_twitter" transform="translate(-686 -5179)">
    <circle id="Ellipse_675_copy" data-name="Ellipse 675 copy" cx="20" cy="20" r="20" transform="translate(686 5179)" fill="#1da1f2"/>
    <path id="ic_twitter-2" data-name="ic_twitter" d="M540.6,5846.938a8.608,8.608,0,0,1-2.6.8,4.958,4.958,0,0,0,1.984-2.789,8.422,8.422,0,0,1-2.859,1.221,4.312,4.312,0,0,0-3.295-1.6,4.8,4.8,0,0,0-4.508,5.048,5.817,5.817,0,0,0,.1,1.151,12.378,12.378,0,0,1-9.3-5.28,5.545,5.545,0,0,0-.617,2.552,5.231,5.231,0,0,0,2,4.193,4.09,4.09,0,0,1-2.038-.621v.055a4.966,4.966,0,0,0,3.613,4.959,4.045,4.045,0,0,1-1.182.166,3.594,3.594,0,0,1-.854-.086,4.652,4.652,0,0,0,4.214,3.516,8.479,8.479,0,0,1-5.592,2.152,7.558,7.558,0,0,1-1.08-.069,11.738,11.738,0,0,0,6.919,2.265c8.3,0,12.837-7.692,12.837-14.361,0-.222-.007-.438-.016-.651A9.65,9.65,0,0,0,540.6,5846.938Z" transform="translate(176.405 -655.571)" fill="#fff"/>
  </g>
</svg>
